<mxfile host="app.diagrams.net" modified="2023-12-18T18:03:26.013Z" agent="Mozilla/5.0 (X11; Linux x86_64; rv:120.0) Gecko/20100101 Firefox/120.0" etag="TTky2MshtrCKFs0zlvIH" version="22.1.11" type="github">
  <diagram name="Main seq. diag." id="2YBvvXClWsGukQMizWep">
    <mxGraphModel dx="641" dy="375" grid="0" gridSize="1" guides="1" tooltips="1" connect="1" arrows="1" fold="1" page="1" pageScale="1" pageWidth="827" pageHeight="1169" math="0" shadow="0">
      <root>
        <mxCell id="0" />
        <mxCell id="1" parent="0" />
        <mxCell id="aM9ryv3xv72pqoxQDRHE-1" value="&lt;div&gt;Parser:asmbl_parser&lt;/div&gt;" style="shape=umlLifeline;perimeter=lifelinePerimeter;whiteSpace=wrap;html=1;container=0;dropTarget=0;collapsible=0;recursiveResize=0;outlineConnect=0;portConstraint=eastwest;newEdgeStyle={&quot;edgeStyle&quot;:&quot;elbowEdgeStyle&quot;,&quot;elbow&quot;:&quot;vertical&quot;,&quot;curved&quot;:0,&quot;rounded&quot;:0};fillColor=#dae8fc;strokeColor=#6c8ebf;" parent="1" vertex="1">
          <mxGeometry x="62" y="41" width="121" height="1169" as="geometry" />
        </mxCell>
        <mxCell id="aM9ryv3xv72pqoxQDRHE-2" value="" style="html=1;points=[];perimeter=orthogonalPerimeter;outlineConnect=0;targetShapes=umlLifeline;portConstraint=eastwest;newEdgeStyle={&quot;edgeStyle&quot;:&quot;elbowEdgeStyle&quot;,&quot;elbow&quot;:&quot;vertical&quot;,&quot;curved&quot;:0,&quot;rounded&quot;:0};fillColor=#dae8fc;strokeColor=#6c8ebf;" parent="aM9ryv3xv72pqoxQDRHE-1" vertex="1">
          <mxGeometry x="56" y="70" width="10" height="1091" as="geometry" />
        </mxCell>
        <mxCell id="aM9ryv3xv72pqoxQDRHE-3" value="&lt;div&gt;Parser&lt;/div&gt;" style="html=1;verticalAlign=bottom;startArrow=oval;endArrow=block;startSize=8;edgeStyle=elbowEdgeStyle;elbow=vertical;curved=0;rounded=0;" parent="aM9ryv3xv72pqoxQDRHE-1" edge="1">
          <mxGeometry x="-0.1079" relative="1" as="geometry">
            <mxPoint x="1" y="72" as="sourcePoint" />
            <mxPoint x="57" y="72.11111111111109" as="targetPoint" />
            <mxPoint as="offset" />
          </mxGeometry>
        </mxCell>
        <mxCell id="RTwjRU6lgNz25zl83SIT-7" value="" style="html=1;points=[[0,0,0,0,5],[0,1,0,0,-5],[1,0,0,0,5],[1,1,0,0,-5]];perimeter=orthogonalPerimeter;outlineConnect=0;targetShapes=umlLifeline;portConstraint=eastwest;newEdgeStyle={&quot;curved&quot;:0,&quot;rounded&quot;:0};fillColor=#dae8fc;strokeColor=#6c8ebf;" parent="aM9ryv3xv72pqoxQDRHE-1" vertex="1">
          <mxGeometry x="62" y="83" width="10" height="1069" as="geometry" />
        </mxCell>
        <mxCell id="RTwjRU6lgNz25zl83SIT-8" value="&lt;div&gt;main&lt;/div&gt;" style="html=1;align=left;spacingLeft=2;endArrow=block;rounded=0;edgeStyle=orthogonalEdgeStyle;curved=0;rounded=0;" parent="aM9ryv3xv72pqoxQDRHE-1" source="aM9ryv3xv72pqoxQDRHE-2" target="RTwjRU6lgNz25zl83SIT-7" edge="1">
          <mxGeometry relative="1" as="geometry">
            <mxPoint x="68" y="73" as="sourcePoint" />
            <Array as="points">
              <mxPoint x="85" y="77" />
              <mxPoint x="85" y="86" />
            </Array>
          </mxGeometry>
        </mxCell>
        <mxCell id="RTwjRU6lgNz25zl83SIT-9" value="" style="html=1;points=[[0,0,0,0,5],[0,1,0,0,-5],[1,0,0,0,5],[1,1,0,0,-5]];perimeter=orthogonalPerimeter;outlineConnect=0;targetShapes=umlLifeline;portConstraint=eastwest;newEdgeStyle={&quot;curved&quot;:0,&quot;rounded&quot;:0};fillColor=#dae8fc;strokeColor=#6c8ebf;" parent="aM9ryv3xv72pqoxQDRHE-1" vertex="1">
          <mxGeometry x="68" y="105" width="10" height="16" as="geometry" />
        </mxCell>
        <mxCell id="RTwjRU6lgNz25zl83SIT-10" value="&lt;font style=&quot;background-color: rgb(154, 199, 191);&quot;&gt;open_files&lt;/font&gt;" style="html=1;align=left;spacingLeft=2;endArrow=block;rounded=0;edgeStyle=orthogonalEdgeStyle;curved=0;rounded=0;" parent="aM9ryv3xv72pqoxQDRHE-1" source="RTwjRU6lgNz25zl83SIT-7" target="RTwjRU6lgNz25zl83SIT-9" edge="1">
          <mxGeometry x="0.15" relative="1" as="geometry">
            <mxPoint x="76" y="98" as="sourcePoint" />
            <Array as="points">
              <mxPoint x="90" y="101" />
              <mxPoint x="90" y="111" />
            </Array>
            <mxPoint as="offset" />
          </mxGeometry>
        </mxCell>
        <mxCell id="RTwjRU6lgNz25zl83SIT-11" value="" style="html=1;points=[[0,0,0,0,5],[0,1,0,0,-5],[1,0,0,0,5],[1,1,0,0,-5]];perimeter=orthogonalPerimeter;outlineConnect=0;targetShapes=umlLifeline;portConstraint=eastwest;newEdgeStyle={&quot;curved&quot;:0,&quot;rounded&quot;:0};fillColor=#dae8fc;strokeColor=#6c8ebf;" parent="aM9ryv3xv72pqoxQDRHE-1" vertex="1">
          <mxGeometry x="68" y="167" width="10" height="159" as="geometry" />
        </mxCell>
        <mxCell id="RTwjRU6lgNz25zl83SIT-12" value="&lt;span style=&quot;background-color: rgb(154, 199, 191);&quot;&gt;split_additive_layers&lt;/span&gt;" style="html=1;align=left;spacingLeft=2;endArrow=block;rounded=0;edgeStyle=orthogonalEdgeStyle;curved=0;rounded=0;" parent="aM9ryv3xv72pqoxQDRHE-1" edge="1">
          <mxGeometry x="0.1163" relative="1" as="geometry">
            <mxPoint x="72" y="157.0000000000001" as="sourcePoint" />
            <Array as="points">
              <mxPoint x="90" y="157" />
              <mxPoint x="90" y="170" />
            </Array>
            <mxPoint as="offset" />
            <mxPoint x="78" y="170" as="targetPoint" />
          </mxGeometry>
        </mxCell>
        <mxCell id="RTwjRU6lgNz25zl83SIT-13" value="" style="html=1;points=[[0,0,0,0,5],[0,1,0,0,-5],[1,0,0,0,5],[1,1,0,0,-5]];perimeter=orthogonalPerimeter;outlineConnect=0;targetShapes=umlLifeline;portConstraint=eastwest;newEdgeStyle={&quot;curved&quot;:0,&quot;rounded&quot;:0};fillColor=#dae8fc;strokeColor=#6c8ebf;" parent="aM9ryv3xv72pqoxQDRHE-1" vertex="1">
          <mxGeometry x="68" y="340" width="10" height="579" as="geometry" />
        </mxCell>
        <mxCell id="RTwjRU6lgNz25zl83SIT-14" value="&lt;span style=&quot;background-color: rgb(154, 199, 191);&quot;&gt;split_cam_operations&lt;/span&gt;" style="html=1;align=left;spacingLeft=2;endArrow=block;rounded=0;edgeStyle=orthogonalEdgeStyle;curved=0;rounded=0;" parent="aM9ryv3xv72pqoxQDRHE-1" target="RTwjRU6lgNz25zl83SIT-13" edge="1">
          <mxGeometry x="0.0864" relative="1" as="geometry">
            <mxPoint x="72" y="334" as="sourcePoint" />
            <Array as="points">
              <mxPoint x="72" y="334" />
              <mxPoint x="90" y="334" />
              <mxPoint x="90" y="345" />
            </Array>
            <mxPoint x="81" y="344.99999999999994" as="targetPoint" />
            <mxPoint as="offset" />
          </mxGeometry>
        </mxCell>
        <mxCell id="RTwjRU6lgNz25zl83SIT-15" value="" style="html=1;points=[[0,0,0,0,5],[0,1,0,0,-5],[1,0,0,0,5],[1,1,0,0,-5]];perimeter=orthogonalPerimeter;outlineConnect=0;targetShapes=umlLifeline;portConstraint=eastwest;newEdgeStyle={&quot;curved&quot;:0,&quot;rounded&quot;:0};fillColor=#dae8fc;strokeColor=#6c8ebf;" parent="aM9ryv3xv72pqoxQDRHE-1" vertex="1">
          <mxGeometry x="68" y="936" width="10" height="55" as="geometry" />
        </mxCell>
        <mxCell id="RTwjRU6lgNz25zl83SIT-16" value="&lt;span style=&quot;background-color: rgb(154, 199, 191);&quot;&gt;order_cam_operations_by_layer&lt;/span&gt;" style="html=1;align=left;spacingLeft=2;endArrow=block;rounded=0;edgeStyle=orthogonalEdgeStyle;curved=0;rounded=0;" parent="aM9ryv3xv72pqoxQDRHE-1" target="RTwjRU6lgNz25zl83SIT-15" edge="1">
          <mxGeometry x="0.08" relative="1" as="geometry">
            <mxPoint x="72" y="930.0344827586207" as="sourcePoint" />
            <Array as="points">
              <mxPoint x="94" y="930" />
              <mxPoint x="94" y="942" />
            </Array>
            <mxPoint as="offset" />
          </mxGeometry>
        </mxCell>
        <mxCell id="RTwjRU6lgNz25zl83SIT-17" value="" style="html=1;points=[[0,0,0,0,5],[0,1,0,0,-5],[1,0,0,0,5],[1,1,0,0,-5]];perimeter=orthogonalPerimeter;outlineConnect=0;targetShapes=umlLifeline;portConstraint=eastwest;newEdgeStyle={&quot;curved&quot;:0,&quot;rounded&quot;:0};fillColor=#dae8fc;strokeColor=#6c8ebf;" parent="aM9ryv3xv72pqoxQDRHE-1" vertex="1">
          <mxGeometry x="68" y="1008" width="10" height="47" as="geometry" />
        </mxCell>
        <mxCell id="RTwjRU6lgNz25zl83SIT-18" value="&lt;span style=&quot;background-color: rgb(154, 199, 191);&quot;&gt;merge_gcode_layers&lt;/span&gt;" style="html=1;align=left;spacingLeft=2;endArrow=block;rounded=0;edgeStyle=orthogonalEdgeStyle;curved=0;rounded=0;entryX=1.06;entryY=0.076;entryDx=0;entryDy=0;entryPerimeter=0;" parent="aM9ryv3xv72pqoxQDRHE-1" edge="1">
          <mxGeometry x="0.1584" relative="1" as="geometry">
            <mxPoint x="72" y="1001.0344827586207" as="sourcePoint" />
            <Array as="points">
              <mxPoint x="94" y="1001" />
              <mxPoint x="94" y="1014" />
              <mxPoint x="82" y="1014" />
            </Array>
            <mxPoint x="81.59999999999991" y="1013.04" as="targetPoint" />
            <mxPoint as="offset" />
          </mxGeometry>
        </mxCell>
        <mxCell id="RTwjRU6lgNz25zl83SIT-20" value="&lt;span style=&quot;background-color: rgb(154, 199, 191);&quot;&gt;create_gcode_script&lt;/span&gt;" style="html=1;align=left;spacingLeft=2;endArrow=block;rounded=0;edgeStyle=orthogonalEdgeStyle;curved=0;rounded=0;" parent="aM9ryv3xv72pqoxQDRHE-1" target="RTwjRU6lgNz25zl83SIT-22" edge="1">
          <mxGeometry x="0.0869" relative="1" as="geometry">
            <mxPoint x="72" y="1064" as="sourcePoint" />
            <Array as="points">
              <mxPoint x="91" y="1064" />
              <mxPoint x="91" y="1078" />
            </Array>
            <mxPoint x="73" y="1115" as="targetPoint" />
            <mxPoint as="offset" />
          </mxGeometry>
        </mxCell>
        <mxCell id="RTwjRU6lgNz25zl83SIT-28" value="" style="html=1;points=[[0,0,0,0,5],[0,1,0,0,-5],[1,0,0,0,5],[1,1,0,0,-5]];perimeter=orthogonalPerimeter;outlineConnect=0;targetShapes=umlLifeline;portConstraint=eastwest;newEdgeStyle={&quot;curved&quot;:0,&quot;rounded&quot;:0};fillColor=#dae8fc;strokeColor=#6c8ebf;" parent="aM9ryv3xv72pqoxQDRHE-1" vertex="1">
          <mxGeometry x="74" y="389" width="10" height="88" as="geometry" />
        </mxCell>
        <mxCell id="RTwjRU6lgNz25zl83SIT-35" value="" style="html=1;points=[[0,0,0,0,5],[0,1,0,0,-5],[1,0,0,0,5],[1,1,0,0,-5]];perimeter=orthogonalPerimeter;outlineConnect=0;targetShapes=umlLifeline;portConstraint=eastwest;newEdgeStyle={&quot;curved&quot;:0,&quot;rounded&quot;:0};fillColor=#dae8fc;strokeColor=#6c8ebf;" parent="aM9ryv3xv72pqoxQDRHE-1" vertex="1">
          <mxGeometry x="74" y="964" width="10" height="13" as="geometry" />
        </mxCell>
        <mxCell id="RTwjRU6lgNz25zl83SIT-37" value="" style="html=1;points=[[0,0,0,0,5],[0,1,0,0,-5],[1,0,0,0,5],[1,1,0,0,-5]];perimeter=orthogonalPerimeter;outlineConnect=0;targetShapes=umlLifeline;portConstraint=eastwest;newEdgeStyle={&quot;curved&quot;:0,&quot;rounded&quot;:0};fillColor=#dae8fc;strokeColor=#6c8ebf;" parent="aM9ryv3xv72pqoxQDRHE-1" vertex="1">
          <mxGeometry x="75" y="1031" width="10" height="13" as="geometry" />
        </mxCell>
        <mxCell id="RTwjRU6lgNz25zl83SIT-38" value="add_retracts" style="html=1;align=left;spacingLeft=2;endArrow=block;rounded=0;edgeStyle=orthogonalEdgeStyle;curved=0;rounded=0;entryX=1;entryY=0;entryDx=0;entryDy=5;entryPerimeter=0;" parent="aM9ryv3xv72pqoxQDRHE-1" source="RTwjRU6lgNz25zl83SIT-17" target="RTwjRU6lgNz25zl83SIT-37" edge="1">
          <mxGeometry relative="1" as="geometry">
            <mxPoint x="81" y="1026" as="sourcePoint" />
            <Array as="points">
              <mxPoint x="103" y="1026" />
              <mxPoint x="103" y="1036" />
            </Array>
          </mxGeometry>
        </mxCell>
        <mxCell id="RTwjRU6lgNz25zl83SIT-22" value="" style="html=1;points=[[0,0,0,0,5],[0,1,0,0,-5],[1,0,0,0,5],[1,1,0,0,-5]];perimeter=orthogonalPerimeter;outlineConnect=0;targetShapes=umlLifeline;portConstraint=eastwest;newEdgeStyle={&quot;curved&quot;:0,&quot;rounded&quot;:0};fillColor=#dae8fc;strokeColor=#6c8ebf;" parent="aM9ryv3xv72pqoxQDRHE-1" vertex="1">
          <mxGeometry x="68" y="1070" width="10" height="72" as="geometry" />
        </mxCell>
        <mxCell id="RTwjRU6lgNz25zl83SIT-29" value="&lt;span style=&quot;background-color: rgb(204, 204, 0);&quot;&gt;assign_cam_line_type&lt;/span&gt;" style="html=1;align=left;spacingLeft=2;endArrow=block;rounded=0;edgeStyle=orthogonalEdgeStyle;curved=0;rounded=0;entryX=1;entryY=0;entryDx=0;entryDy=5;entryPerimeter=0;" parent="aM9ryv3xv72pqoxQDRHE-1" source="RTwjRU6lgNz25zl83SIT-13" target="RTwjRU6lgNz25zl83SIT-28" edge="1">
          <mxGeometry x="0.0967" relative="1" as="geometry">
            <mxPoint x="79" y="383" as="sourcePoint" />
            <Array as="points">
              <mxPoint x="106" y="382" />
              <mxPoint x="106" y="394" />
            </Array>
            <mxPoint as="offset" />
          </mxGeometry>
        </mxCell>
        <mxCell id="RTwjRU6lgNz25zl83SIT-30" value="" style="html=1;points=[[0,0,0,0,5],[0,1,0,0,-5],[1,0,0,0,5],[1,1,0,0,-5]];perimeter=orthogonalPerimeter;outlineConnect=0;targetShapes=umlLifeline;portConstraint=eastwest;newEdgeStyle={&quot;curved&quot;:0,&quot;rounded&quot;:0};fillColor=#dae8fc;strokeColor=#6c8ebf;" parent="aM9ryv3xv72pqoxQDRHE-1" vertex="1">
          <mxGeometry x="73" y="489" width="10" height="72" as="geometry" />
        </mxCell>
        <mxCell id="RTwjRU6lgNz25zl83SIT-31" value="&lt;span style=&quot;background-color: rgb(204, 204, 0);&quot;&gt;group_cam_lines&lt;/span&gt;" style="html=1;align=left;spacingLeft=2;endArrow=block;rounded=0;edgeStyle=orthogonalEdgeStyle;curved=0;rounded=0;entryX=1;entryY=0;entryDx=0;entryDy=5;entryPerimeter=0;" parent="aM9ryv3xv72pqoxQDRHE-1" target="RTwjRU6lgNz25zl83SIT-30" edge="1">
          <mxGeometry x="0.0819" relative="1" as="geometry">
            <mxPoint x="78" y="484" as="sourcePoint" />
            <Array as="points">
              <mxPoint x="106" y="484" />
              <mxPoint x="106" y="494" />
            </Array>
            <mxPoint as="offset" />
          </mxGeometry>
        </mxCell>
        <mxCell id="RTwjRU6lgNz25zl83SIT-32" value="" style="html=1;points=[[0,0,0,0,5],[0,1,0,0,-5],[1,0,0,0,5],[1,1,0,0,-5]];perimeter=orthogonalPerimeter;outlineConnect=0;targetShapes=umlLifeline;portConstraint=eastwest;newEdgeStyle={&quot;curved&quot;:0,&quot;rounded&quot;:0};fillColor=#dae8fc;strokeColor=#6c8ebf;" parent="aM9ryv3xv72pqoxQDRHE-1" vertex="1">
          <mxGeometry x="73" y="576" width="10" height="336" as="geometry" />
        </mxCell>
        <mxCell id="RTwjRU6lgNz25zl83SIT-33" value="&lt;span style=&quot;background-color: rgb(204, 204, 0);&quot;&gt;group_cam_segments&lt;/span&gt;" style="html=1;align=left;spacingLeft=2;endArrow=block;rounded=0;edgeStyle=orthogonalEdgeStyle;curved=0;rounded=0;entryX=1;entryY=0;entryDx=0;entryDy=5;entryPerimeter=0;" parent="aM9ryv3xv72pqoxQDRHE-1" target="RTwjRU6lgNz25zl83SIT-32" edge="1">
          <mxGeometry x="0.102" y="1" relative="1" as="geometry">
            <mxPoint x="80" y="571" as="sourcePoint" />
            <Array as="points">
              <mxPoint x="101" y="571" />
              <mxPoint x="101" y="581" />
            </Array>
            <mxPoint as="offset" />
          </mxGeometry>
        </mxCell>
        <mxCell id="RTwjRU6lgNz25zl83SIT-36" value="assign_cam_layer_height" style="html=1;align=left;spacingLeft=2;endArrow=block;rounded=0;edgeStyle=orthogonalEdgeStyle;curved=0;rounded=0;entryX=1;entryY=0;entryDx=0;entryDy=5;entryPerimeter=0;" parent="aM9ryv3xv72pqoxQDRHE-1" target="RTwjRU6lgNz25zl83SIT-35" edge="1">
          <mxGeometry x="0.1153" relative="1" as="geometry">
            <mxPoint x="78" y="959" as="sourcePoint" />
            <Array as="points">
              <mxPoint x="78" y="957" />
              <mxPoint x="102" y="957" />
              <mxPoint x="102" y="969" />
            </Array>
            <mxPoint as="offset" />
          </mxGeometry>
        </mxCell>
        <mxCell id="VmXkso3KA5exqOnQr0_7-30" value="" style="html=1;points=[[0,0,0,0,5],[0,1,0,0,-5],[1,0,0,0,5],[1,1,0,0,-5]];perimeter=orthogonalPerimeter;outlineConnect=0;targetShapes=umlLifeline;portConstraint=eastwest;newEdgeStyle={&quot;curved&quot;:0,&quot;rounded&quot;:0};fillColor=#dae8fc;strokeColor=#6c8ebf;" vertex="1" parent="aM9ryv3xv72pqoxQDRHE-1">
          <mxGeometry x="78" y="832" width="10" height="13" as="geometry" />
        </mxCell>
        <mxCell id="VmXkso3KA5exqOnQr0_7-31" value="add_lead_in_out" style="html=1;align=left;spacingLeft=2;endArrow=block;rounded=0;edgeStyle=orthogonalEdgeStyle;curved=0;rounded=0;" edge="1" parent="aM9ryv3xv72pqoxQDRHE-1">
          <mxGeometry relative="1" as="geometry">
            <mxPoint x="83" y="825" as="sourcePoint" />
            <Array as="points">
              <mxPoint x="107" y="825" />
              <mxPoint x="107" y="839" />
              <mxPoint x="88" y="839" />
            </Array>
            <mxPoint x="87" y="839" as="targetPoint" />
          </mxGeometry>
        </mxCell>
        <mxCell id="RTwjRU6lgNz25zl83SIT-1" value="AdditiveGcodeLayer:" style="shape=umlLifeline;perimeter=lifelinePerimeter;whiteSpace=wrap;html=1;container=0;dropTarget=0;collapsible=0;recursiveResize=0;outlineConnect=0;portConstraint=eastwest;newEdgeStyle={&quot;edgeStyle&quot;:&quot;elbowEdgeStyle&quot;,&quot;elbow&quot;:&quot;vertical&quot;,&quot;curved&quot;:0,&quot;rounded&quot;:0};size=16;fillColor=#d5e8d4;strokeColor=#82b366;" parent="1" vertex="1">
          <mxGeometry x="306" y="197" width="120" height="82" as="geometry" />
        </mxCell>
        <mxCell id="RTwjRU6lgNz25zl83SIT-2" value="" style="html=1;points=[];perimeter=orthogonalPerimeter;outlineConnect=0;targetShapes=umlLifeline;portConstraint=eastwest;newEdgeStyle={&quot;edgeStyle&quot;:&quot;elbowEdgeStyle&quot;,&quot;elbow&quot;:&quot;vertical&quot;,&quot;curved&quot;:0,&quot;rounded&quot;:0};fillColor=#d5e8d4;strokeColor=#82b366;" parent="RTwjRU6lgNz25zl83SIT-1" vertex="1">
          <mxGeometry x="55" y="22" width="10" height="55" as="geometry" />
        </mxCell>
        <mxCell id="RTwjRU6lgNz25zl83SIT-44" value="" style="html=1;points=[[0,0,0,0,5],[0,1,0,0,-5],[1,0,0,0,5],[1,1,0,0,-5]];perimeter=orthogonalPerimeter;outlineConnect=0;targetShapes=umlLifeline;portConstraint=eastwest;newEdgeStyle={&quot;curved&quot;:0,&quot;rounded&quot;:0};fillColor=#d5e8d4;strokeColor=#82b366;" parent="RTwjRU6lgNz25zl83SIT-1" vertex="1">
          <mxGeometry x="60" y="30" width="10" height="9" as="geometry" />
        </mxCell>
        <mxCell id="RTwjRU6lgNz25zl83SIT-45" value="remove_park_code" style="html=1;align=left;spacingLeft=2;endArrow=block;rounded=0;edgeStyle=orthogonalEdgeStyle;curved=0;rounded=0;" parent="RTwjRU6lgNz25zl83SIT-1" target="RTwjRU6lgNz25zl83SIT-44" edge="1">
          <mxGeometry relative="1" as="geometry">
            <mxPoint x="65" y="25" as="sourcePoint" />
            <Array as="points">
              <mxPoint x="87" y="25" />
              <mxPoint x="87" y="32" />
            </Array>
          </mxGeometry>
        </mxCell>
        <mxCell id="RTwjRU6lgNz25zl83SIT-46" value="" style="html=1;points=[[0,0,0,0,5],[0,1,0,0,-5],[1,0,0,0,5],[1,1,0,0,-5]];perimeter=orthogonalPerimeter;outlineConnect=0;targetShapes=umlLifeline;portConstraint=eastwest;newEdgeStyle={&quot;curved&quot;:0,&quot;rounded&quot;:0};fillColor=#d5e8d4;strokeColor=#82b366;" parent="RTwjRU6lgNz25zl83SIT-1" vertex="1">
          <mxGeometry x="60" y="47" width="10" height="10" as="geometry" />
        </mxCell>
        <mxCell id="RTwjRU6lgNz25zl83SIT-47" value="get_name (if name is None)" style="html=1;align=left;spacingLeft=2;endArrow=block;rounded=0;edgeStyle=orthogonalEdgeStyle;curved=0;rounded=0;" parent="RTwjRU6lgNz25zl83SIT-1" target="RTwjRU6lgNz25zl83SIT-46" edge="1">
          <mxGeometry relative="1" as="geometry">
            <mxPoint x="65" y="43" as="sourcePoint" />
            <Array as="points">
              <mxPoint x="87" y="43" />
              <mxPoint x="87" y="51" />
            </Array>
          </mxGeometry>
        </mxCell>
        <mxCell id="RTwjRU6lgNz25zl83SIT-3" value="utils" style="shape=umlLifeline;perimeter=lifelinePerimeter;whiteSpace=wrap;html=1;container=0;dropTarget=0;collapsible=0;recursiveResize=0;outlineConnect=0;portConstraint=eastwest;newEdgeStyle={&quot;edgeStyle&quot;:&quot;elbowEdgeStyle&quot;,&quot;elbow&quot;:&quot;vertical&quot;,&quot;curved&quot;:0,&quot;rounded&quot;:0};fillColor=#f8cecc;strokeColor=#b85450;" parent="1" vertex="1">
          <mxGeometry x="539" y="48" width="63" height="477" as="geometry" />
        </mxCell>
        <mxCell id="RTwjRU6lgNz25zl83SIT-4" value="" style="html=1;points=[];perimeter=orthogonalPerimeter;outlineConnect=0;targetShapes=umlLifeline;portConstraint=eastwest;newEdgeStyle={&quot;edgeStyle&quot;:&quot;elbowEdgeStyle&quot;,&quot;elbow&quot;:&quot;vertical&quot;,&quot;curved&quot;:0,&quot;rounded&quot;:0};fillColor=#f8cecc;strokeColor=#b85450;" parent="RTwjRU6lgNz25zl83SIT-3" vertex="1">
          <mxGeometry x="27" y="120" width="10" height="21" as="geometry" />
        </mxCell>
        <mxCell id="RTwjRU6lgNz25zl83SIT-21" value="AdditiveGcodeLayer" style="html=1;verticalAlign=bottom;endArrow=block;curved=0;rounded=0;" parent="1" edge="1">
          <mxGeometry x="-0.0003" y="-9" width="80" relative="1" as="geometry">
            <mxPoint x="140" y="226.9999999999999" as="sourcePoint" />
            <mxPoint x="361" y="227" as="targetPoint" />
            <mxPoint as="offset" />
          </mxGeometry>
        </mxCell>
        <mxCell id="RTwjRU6lgNz25zl83SIT-24" value="" style="html=1;verticalAlign=bottom;endArrow=block;curved=0;rounded=0;entryX=-0.233;entryY=0.202;entryDx=0;entryDy=0;entryPerimeter=0;" parent="1" source="RTwjRU6lgNz25zl83SIT-7" target="RTwjRU6lgNz25zl83SIT-4" edge="1">
          <mxGeometry x="0.0417" y="6" width="80" relative="1" as="geometry">
            <mxPoint x="120" y="176" as="sourcePoint" />
            <mxPoint x="486" y="176" as="targetPoint" />
            <mxPoint as="offset" />
          </mxGeometry>
        </mxCell>
        <mxCell id="RTwjRU6lgNz25zl83SIT-27" value="convert_relative" style="edgeLabel;html=1;align=center;verticalAlign=middle;resizable=0;points=[];" parent="RTwjRU6lgNz25zl83SIT-24" vertex="1" connectable="0">
          <mxGeometry x="0.0522" relative="1" as="geometry">
            <mxPoint y="-2" as="offset" />
          </mxGeometry>
        </mxCell>
        <mxCell id="RTwjRU6lgNz25zl83SIT-25" value="" style="html=1;verticalAlign=bottom;endArrow=open;dashed=1;endSize=8;curved=0;rounded=0;" parent="1" edge="1">
          <mxGeometry relative="1" as="geometry">
            <mxPoint x="566" y="184.5" as="sourcePoint" />
            <mxPoint x="134" y="184.5" as="targetPoint" />
          </mxGeometry>
        </mxCell>
        <mxCell id="RTwjRU6lgNz25zl83SIT-42" value="" style="html=1;points=[[0,0,0,0,5],[0,1,0,0,-5],[1,0,0,0,5],[1,1,0,0,-5]];perimeter=orthogonalPerimeter;outlineConnect=0;targetShapes=umlLifeline;portConstraint=eastwest;newEdgeStyle={&quot;curved&quot;:0,&quot;rounded&quot;:0};fillColor=#dae8fc;strokeColor=#6c8ebf;" parent="1" vertex="1">
          <mxGeometry x="135" y="257" width="10" height="13" as="geometry" />
        </mxCell>
        <mxCell id="RTwjRU6lgNz25zl83SIT-43" value="set_last_additive_tool" style="html=1;align=left;spacingLeft=2;endArrow=block;rounded=0;edgeStyle=orthogonalEdgeStyle;curved=0;rounded=0;" parent="1" edge="1">
          <mxGeometry relative="1" as="geometry">
            <mxPoint x="140" y="250" as="sourcePoint" />
            <Array as="points">
              <mxPoint x="164" y="250" />
              <mxPoint x="164" y="264" />
              <mxPoint x="145" y="264" />
            </Array>
            <mxPoint x="144" y="264" as="targetPoint" />
          </mxGeometry>
        </mxCell>
        <mxCell id="RTwjRU6lgNz25zl83SIT-58" value="offset_gcode" style="html=1;verticalAlign=bottom;endArrow=block;curved=0;rounded=0;" parent="1" edge="1">
          <mxGeometry x="-0.0078" y="-8" width="80" relative="1" as="geometry">
            <mxPoint x="367" y="468" as="sourcePoint" />
            <mxPoint x="566" y="468" as="targetPoint" />
            <mxPoint as="offset" />
          </mxGeometry>
        </mxCell>
        <mxCell id="RTwjRU6lgNz25zl83SIT-59" value="" style="html=1;points=[];perimeter=orthogonalPerimeter;outlineConnect=0;targetShapes=umlLifeline;portConstraint=eastwest;newEdgeStyle={&quot;edgeStyle&quot;:&quot;elbowEdgeStyle&quot;,&quot;elbow&quot;:&quot;vertical&quot;,&quot;curved&quot;:0,&quot;rounded&quot;:0};fillColor=#f8cecc;strokeColor=#b85450;" parent="1" vertex="1">
          <mxGeometry x="566" y="465" width="10" height="16" as="geometry" />
        </mxCell>
        <mxCell id="RTwjRU6lgNz25zl83SIT-60" value="" style="html=1;verticalAlign=bottom;endArrow=open;dashed=1;endSize=8;curved=0;rounded=0;" parent="1" edge="1">
          <mxGeometry relative="1" as="geometry">
            <mxPoint x="566" y="476" as="sourcePoint" />
            <mxPoint x="367" y="476" as="targetPoint" />
          </mxGeometry>
        </mxCell>
        <mxCell id="RTwjRU6lgNz25zl83SIT-64" value="CamGcodeLine" style="html=1;verticalAlign=bottom;endArrow=block;curved=0;rounded=0;" parent="1" edge="1">
          <mxGeometry x="0.0047" y="-7" width="80" relative="1" as="geometry">
            <mxPoint x="146" y="471" as="sourcePoint" />
            <mxPoint x="356.9999999999999" y="471" as="targetPoint" />
            <mxPoint y="1" as="offset" />
          </mxGeometry>
        </mxCell>
        <mxCell id="RTwjRU6lgNz25zl83SIT-65" value="&lt;div&gt;loop over unlabelled_lines&lt;/div&gt;" style="shape=umlFrame;whiteSpace=wrap;html=1;pointerEvents=0;width=158;height=15;fillColor=#dae8fc;strokeColor=#6c8ebf;align=left;" parent="1" vertex="1">
          <mxGeometry x="64" y="442" width="438" height="69" as="geometry" />
        </mxCell>
        <mxCell id="RTwjRU6lgNz25zl83SIT-51" value="CamGcodeLine:" style="shape=umlLifeline;perimeter=lifelinePerimeter;whiteSpace=wrap;html=1;container=0;dropTarget=0;collapsible=0;recursiveResize=0;outlineConnect=0;portConstraint=eastwest;newEdgeStyle={&quot;edgeStyle&quot;:&quot;elbowEdgeStyle&quot;,&quot;elbow&quot;:&quot;vertical&quot;,&quot;curved&quot;:0,&quot;rounded&quot;:0};size=14;fillColor=#ffe6cc;strokeColor=#d79b00;" parent="1" vertex="1">
          <mxGeometry x="313" y="446" width="99" height="69" as="geometry" />
        </mxCell>
        <mxCell id="RTwjRU6lgNz25zl83SIT-52" value="" style="html=1;points=[];perimeter=orthogonalPerimeter;outlineConnect=0;targetShapes=umlLifeline;portConstraint=eastwest;newEdgeStyle={&quot;edgeStyle&quot;:&quot;elbowEdgeStyle&quot;,&quot;elbow&quot;:&quot;vertical&quot;,&quot;curved&quot;:0,&quot;rounded&quot;:0};fillColor=#ffe6cc;strokeColor=#d79b00;" parent="RTwjRU6lgNz25zl83SIT-51" vertex="1">
          <mxGeometry x="44" y="18" width="10" height="41" as="geometry" />
        </mxCell>
        <mxCell id="RTwjRU6lgNz25zl83SIT-55" value="" style="html=1;points=[[0,0,0,0,5],[0,1,0,0,-5],[1,0,0,0,5],[1,1,0,0,-5]];perimeter=orthogonalPerimeter;outlineConnect=0;targetShapes=umlLifeline;portConstraint=eastwest;newEdgeStyle={&quot;curved&quot;:0,&quot;rounded&quot;:0};fillColor=#ffe6cc;strokeColor=#d79b00;" parent="RTwjRU6lgNz25zl83SIT-51" vertex="1">
          <mxGeometry x="49" y="44" width="10" height="11" as="geometry" />
        </mxCell>
        <mxCell id="RTwjRU6lgNz25zl83SIT-56" value="get_layer_height" style="html=1;align=left;spacingLeft=2;endArrow=block;rounded=0;edgeStyle=orthogonalEdgeStyle;curved=0;rounded=0;entryX=1;entryY=0;entryDx=0;entryDy=5;entryPerimeter=0;" parent="RTwjRU6lgNz25zl83SIT-51" target="RTwjRU6lgNz25zl83SIT-55" edge="1">
          <mxGeometry x="0.0313" relative="1" as="geometry">
            <mxPoint x="54" y="40" as="sourcePoint" />
            <Array as="points">
              <mxPoint x="54" y="40" />
              <mxPoint x="84" y="40" />
              <mxPoint x="84" y="49" />
              <mxPoint x="59" y="49" />
            </Array>
            <mxPoint x="59" y="48" as="targetPoint" />
            <mxPoint as="offset" />
          </mxGeometry>
        </mxCell>
        <mxCell id="RTwjRU6lgNz25zl83SIT-68" value="AdditiveGcodeLayer:" style="shape=umlLifeline;perimeter=lifelinePerimeter;whiteSpace=wrap;html=1;container=0;dropTarget=0;collapsible=0;recursiveResize=0;outlineConnect=0;portConstraint=eastwest;newEdgeStyle={&quot;edgeStyle&quot;:&quot;elbowEdgeStyle&quot;,&quot;elbow&quot;:&quot;vertical&quot;,&quot;curved&quot;:0,&quot;rounded&quot;:0};size=15;fillColor=#d5e8d4;strokeColor=#82b366;" parent="1" vertex="1">
          <mxGeometry x="306" y="287" width="120" height="74" as="geometry" />
        </mxCell>
        <mxCell id="RTwjRU6lgNz25zl83SIT-69" value="" style="html=1;points=[];perimeter=orthogonalPerimeter;outlineConnect=0;targetShapes=umlLifeline;portConstraint=eastwest;newEdgeStyle={&quot;edgeStyle&quot;:&quot;elbowEdgeStyle&quot;,&quot;elbow&quot;:&quot;vertical&quot;,&quot;curved&quot;:0,&quot;rounded&quot;:0};fillColor=#d5e8d4;strokeColor=#82b366;" parent="RTwjRU6lgNz25zl83SIT-68" vertex="1">
          <mxGeometry x="55" y="19" width="10" height="51" as="geometry" />
        </mxCell>
        <mxCell id="RTwjRU6lgNz25zl83SIT-70" value="" style="html=1;points=[[0,0,0,0,5],[0,1,0,0,-5],[1,0,0,0,5],[1,1,0,0,-5]];perimeter=orthogonalPerimeter;outlineConnect=0;targetShapes=umlLifeline;portConstraint=eastwest;newEdgeStyle={&quot;curved&quot;:0,&quot;rounded&quot;:0};fillColor=#d5e8d4;strokeColor=#82b366;" parent="RTwjRU6lgNz25zl83SIT-68" vertex="1">
          <mxGeometry x="60" y="24" width="10" height="9" as="geometry" />
        </mxCell>
        <mxCell id="RTwjRU6lgNz25zl83SIT-71" value="remove_park_code" style="html=1;align=left;spacingLeft=2;endArrow=block;rounded=0;edgeStyle=orthogonalEdgeStyle;curved=0;rounded=0;entryX=1;entryY=1;entryDx=0;entryDy=-5;entryPerimeter=0;" parent="RTwjRU6lgNz25zl83SIT-68" edge="1" target="RTwjRU6lgNz25zl83SIT-70">
          <mxGeometry relative="1" as="geometry">
            <mxPoint x="65" y="21" as="sourcePoint" />
            <Array as="points">
              <mxPoint x="87" y="21" />
              <mxPoint x="87" y="28" />
            </Array>
            <mxPoint x="70" y="30" as="targetPoint" />
          </mxGeometry>
        </mxCell>
        <mxCell id="RTwjRU6lgNz25zl83SIT-72" value="" style="html=1;points=[[0,0,0,0,5],[0,1,0,0,-5],[1,0,0,0,5],[1,1,0,0,-5]];perimeter=orthogonalPerimeter;outlineConnect=0;targetShapes=umlLifeline;portConstraint=eastwest;newEdgeStyle={&quot;curved&quot;:0,&quot;rounded&quot;:0};fillColor=#d5e8d4;strokeColor=#82b366;" parent="RTwjRU6lgNz25zl83SIT-68" vertex="1">
          <mxGeometry x="60" y="40" width="10" height="10" as="geometry" />
        </mxCell>
        <mxCell id="RTwjRU6lgNz25zl83SIT-73" value="get_name (if name is None)" style="html=1;align=left;spacingLeft=2;endArrow=block;rounded=0;edgeStyle=orthogonalEdgeStyle;curved=0;rounded=0;" parent="RTwjRU6lgNz25zl83SIT-68" edge="1">
          <mxGeometry relative="1" as="geometry">
            <mxPoint x="65" y="36" as="sourcePoint" />
            <Array as="points">
              <mxPoint x="88" y="36" />
              <mxPoint x="88" y="44" />
            </Array>
            <mxPoint x="70" y="44" as="targetPoint" />
          </mxGeometry>
        </mxCell>
        <mxCell id="RTwjRU6lgNz25zl83SIT-74" value="AdditiveGcodeLayer" style="html=1;verticalAlign=bottom;endArrow=block;curved=0;rounded=0;" parent="1" target="RTwjRU6lgNz25zl83SIT-69" edge="1">
          <mxGeometry x="-0.0003" y="-9" width="80" relative="1" as="geometry">
            <mxPoint x="140" y="312" as="sourcePoint" />
            <mxPoint x="310" y="312" as="targetPoint" />
            <mxPoint as="offset" />
          </mxGeometry>
        </mxCell>
        <mxCell id="RTwjRU6lgNz25zl83SIT-67" value="loop" style="shape=umlFrame;whiteSpace=wrap;html=1;pointerEvents=0;width=35;height=23;fillColor=#dae8fc;strokeColor=#6c8ebf;" parent="1" vertex="1">
          <mxGeometry x="49" y="280" width="495" height="83" as="geometry" />
        </mxCell>
        <mxCell id="RTwjRU6lgNz25zl83SIT-75" value="loop" style="shape=umlFrame;whiteSpace=wrap;html=1;pointerEvents=0;width=34;height=21;fillColor=#dae8fc;strokeColor=#6c8ebf;" parent="1" vertex="1">
          <mxGeometry x="48" y="399.5" width="495" height="565.5" as="geometry" />
        </mxCell>
        <mxCell id="RTwjRU6lgNz25zl83SIT-81" value="&lt;div&gt;loop over lines&lt;br&gt;&lt;/div&gt;" style="shape=umlFrame;whiteSpace=wrap;html=1;pointerEvents=0;width=152;height=15;fillColor=#dae8fc;strokeColor=#6c8ebf;align=left;" parent="1" vertex="1">
          <mxGeometry x="63" y="543" width="440" height="51" as="geometry" />
        </mxCell>
        <mxCell id="RTwjRU6lgNz25zl83SIT-82" value="CamGcodeSegment:" style="shape=umlLifeline;perimeter=lifelinePerimeter;whiteSpace=wrap;html=1;container=0;dropTarget=0;collapsible=0;recursiveResize=0;outlineConnect=0;portConstraint=eastwest;newEdgeStyle={&quot;edgeStyle&quot;:&quot;elbowEdgeStyle&quot;,&quot;elbow&quot;:&quot;vertical&quot;,&quot;curved&quot;:0,&quot;rounded&quot;:0};size=13;fillColor=#e1d5e7;strokeColor=#9673a6;" parent="1" vertex="1">
          <mxGeometry x="309" y="546" width="117" height="48" as="geometry" />
        </mxCell>
        <mxCell id="RTwjRU6lgNz25zl83SIT-83" value="" style="html=1;points=[];perimeter=orthogonalPerimeter;outlineConnect=0;targetShapes=umlLifeline;portConstraint=eastwest;newEdgeStyle={&quot;edgeStyle&quot;:&quot;elbowEdgeStyle&quot;,&quot;elbow&quot;:&quot;vertical&quot;,&quot;curved&quot;:0,&quot;rounded&quot;:0};fillColor=#e1d5e7;strokeColor=#9673a6;" parent="RTwjRU6lgNz25zl83SIT-82" vertex="1">
          <mxGeometry x="53" y="18" width="10" height="24" as="geometry" />
        </mxCell>
        <mxCell id="RTwjRU6lgNz25zl83SIT-88" value="CamGcodeSegment" style="html=1;verticalAlign=bottom;endArrow=block;curved=0;rounded=0;" parent="1" edge="1">
          <mxGeometry x="-0.0047" y="-9" width="80" relative="1" as="geometry">
            <mxPoint x="145" y="571" as="sourcePoint" />
            <mxPoint x="362" y="571" as="targetPoint" />
            <mxPoint y="-1" as="offset" />
          </mxGeometry>
        </mxCell>
        <mxCell id="RTwjRU6lgNz25zl83SIT-89" value="loop over cutting_segments" style="shape=umlFrame;whiteSpace=wrap;html=1;pointerEvents=0;width=251;height=15;fillColor=#dae8fc;strokeColor=#6c8ebf;fillStyle=solid;align=left;" parent="1" vertex="1">
          <mxGeometry x="64" y="630" width="439" height="318" as="geometry" />
        </mxCell>
        <mxCell id="RTwjRU6lgNz25zl83SIT-95" value="" style="html=1;points=[[0,0,0,0,5],[0,1,0,0,-5],[1,0,0,0,5],[1,1,0,0,-5]];perimeter=orthogonalPerimeter;outlineConnect=0;targetShapes=umlLifeline;portConstraint=eastwest;newEdgeStyle={&quot;curved&quot;:0,&quot;rounded&quot;:0};fillColor=#e1d5e7;strokeColor=#9673a6;" parent="1" vertex="1">
          <mxGeometry x="367" y="573" width="10" height="11" as="geometry" />
        </mxCell>
        <mxCell id="RTwjRU6lgNz25zl83SIT-96" value="set_z_height" style="html=1;align=left;spacingLeft=2;endArrow=block;rounded=0;edgeStyle=orthogonalEdgeStyle;curved=0;rounded=0;entryX=1;entryY=0;entryDx=0;entryDy=5;entryPerimeter=0;" parent="1" target="RTwjRU6lgNz25zl83SIT-95" edge="1">
          <mxGeometry x="0.0313" relative="1" as="geometry">
            <mxPoint x="372" y="569" as="sourcePoint" />
            <Array as="points">
              <mxPoint x="372" y="569" />
              <mxPoint x="402" y="569" />
              <mxPoint x="402" y="578" />
            </Array>
            <mxPoint x="377" y="575" as="targetPoint" />
            <mxPoint as="offset" />
          </mxGeometry>
        </mxCell>
        <mxCell id="RTwjRU6lgNz25zl83SIT-101" value="CamGcodeLayer:" style="shape=umlLifeline;perimeter=lifelinePerimeter;whiteSpace=wrap;html=1;container=0;dropTarget=0;collapsible=0;recursiveResize=0;outlineConnect=0;portConstraint=eastwest;newEdgeStyle={&quot;edgeStyle&quot;:&quot;elbowEdgeStyle&quot;,&quot;elbow&quot;:&quot;vertical&quot;,&quot;curved&quot;:0,&quot;rounded&quot;:0};size=13;fillColor=#e1d5e7;strokeColor=#9673a6;" parent="1" vertex="1">
          <mxGeometry x="319" y="866" width="99" height="82" as="geometry" />
        </mxCell>
        <mxCell id="RTwjRU6lgNz25zl83SIT-102" value="" style="html=1;points=[];perimeter=orthogonalPerimeter;outlineConnect=0;targetShapes=umlLifeline;portConstraint=eastwest;newEdgeStyle={&quot;edgeStyle&quot;:&quot;elbowEdgeStyle&quot;,&quot;elbow&quot;:&quot;vertical&quot;,&quot;curved&quot;:0,&quot;rounded&quot;:0};fillColor=#e1d5e7;strokeColor=#9673a6;" parent="RTwjRU6lgNz25zl83SIT-101" vertex="1">
          <mxGeometry x="44" y="17" width="10" height="59" as="geometry" />
        </mxCell>
        <mxCell id="RTwjRU6lgNz25zl83SIT-103" value="" style="html=1;points=[[0,0,0,0,5],[0,1,0,0,-5],[1,0,0,0,5],[1,1,0,0,-5]];perimeter=orthogonalPerimeter;outlineConnect=0;targetShapes=umlLifeline;portConstraint=eastwest;newEdgeStyle={&quot;curved&quot;:0,&quot;rounded&quot;:0};fillColor=#e1d5e7;strokeColor=#9673a6;" parent="1" vertex="1">
          <mxGeometry x="369" y="889" width="10" height="11" as="geometry" />
        </mxCell>
        <mxCell id="RTwjRU6lgNz25zl83SIT-104" value="set_cuttingheight" style="html=1;align=left;spacingLeft=2;endArrow=block;rounded=0;edgeStyle=orthogonalEdgeStyle;curved=0;rounded=0;" parent="1" target="RTwjRU6lgNz25zl83SIT-103" edge="1">
          <mxGeometry x="0.0313" relative="1" as="geometry">
            <mxPoint x="373" y="886" as="sourcePoint" />
            <Array as="points">
              <mxPoint x="402" y="886" />
              <mxPoint x="402" y="895" />
            </Array>
            <mxPoint x="377" y="892" as="targetPoint" />
            <mxPoint as="offset" />
          </mxGeometry>
        </mxCell>
        <mxCell id="RTwjRU6lgNz25zl83SIT-105" value="" style="html=1;points=[[0,0,0,0,5],[0,1,0,0,-5],[1,0,0,0,5],[1,1,0,0,-5]];perimeter=orthogonalPerimeter;outlineConnect=0;targetShapes=umlLifeline;portConstraint=eastwest;newEdgeStyle={&quot;curved&quot;:0,&quot;rounded&quot;:0};fillColor=#e1d5e7;strokeColor=#9673a6;" parent="1" vertex="1">
          <mxGeometry x="369" y="908" width="10" height="11" as="geometry" />
        </mxCell>
        <mxCell id="RTwjRU6lgNz25zl83SIT-106" value="set_planar" style="html=1;align=left;spacingLeft=2;endArrow=block;rounded=0;edgeStyle=orthogonalEdgeStyle;curved=0;rounded=0;entryX=1;entryY=0;entryDx=0;entryDy=5;entryPerimeter=0;" parent="1" target="RTwjRU6lgNz25zl83SIT-105" edge="1">
          <mxGeometry x="0.0313" relative="1" as="geometry">
            <mxPoint x="373" y="905" as="sourcePoint" />
            <Array as="points">
              <mxPoint x="403" y="905" />
              <mxPoint x="403" y="914" />
              <mxPoint x="386" y="914" />
              <mxPoint x="386" y="913" />
            </Array>
            <mxPoint x="378" y="911" as="targetPoint" />
            <mxPoint as="offset" />
          </mxGeometry>
        </mxCell>
        <mxCell id="RTwjRU6lgNz25zl83SIT-107" value="" style="html=1;points=[[0,0,0,0,5],[0,1,0,0,-5],[1,0,0,0,5],[1,1,0,0,-5]];perimeter=orthogonalPerimeter;outlineConnect=0;targetShapes=umlLifeline;portConstraint=eastwest;newEdgeStyle={&quot;curved&quot;:0,&quot;rounded&quot;:0};fillColor=#e1d5e7;strokeColor=#9673a6;" parent="1" vertex="1">
          <mxGeometry x="369" y="928" width="10" height="11" as="geometry" />
        </mxCell>
        <mxCell id="RTwjRU6lgNz25zl83SIT-108" value="parse_code" style="html=1;align=left;spacingLeft=2;endArrow=block;rounded=0;edgeStyle=orthogonalEdgeStyle;curved=0;rounded=0;entryX=1;entryY=0;entryDx=0;entryDy=5;entryPerimeter=0;" parent="1" target="RTwjRU6lgNz25zl83SIT-107" edge="1">
          <mxGeometry x="0.0313" relative="1" as="geometry">
            <mxPoint x="373" y="925" as="sourcePoint" />
            <Array as="points">
              <mxPoint x="403" y="925" />
              <mxPoint x="403" y="933" />
            </Array>
            <mxPoint x="378" y="931" as="targetPoint" />
            <mxPoint as="offset" />
          </mxGeometry>
        </mxCell>
        <mxCell id="RTwjRU6lgNz25zl83SIT-109" value="CamGcodeLayer" style="html=1;verticalAlign=bottom;endArrow=block;curved=0;rounded=0;exitX=1;exitY=0.416;exitDx=0;exitDy=0;exitPerimeter=0;" parent="1" edge="1">
          <mxGeometry x="-0.0047" y="-9" width="80" relative="1" as="geometry">
            <mxPoint x="145" y="891.3119999999999" as="sourcePoint" />
            <mxPoint x="363" y="891.3119999999999" as="targetPoint" />
            <mxPoint y="-1" as="offset" />
          </mxGeometry>
        </mxCell>
        <mxCell id="RTwjRU6lgNz25zl83SIT-110" value="loop" style="shape=umlFrame;whiteSpace=wrap;html=1;pointerEvents=0;width=36;height=21;fillColor=#dae8fc;strokeColor=#6c8ebf;" parent="1" vertex="1">
          <mxGeometry x="49" y="992" width="495" height="34" as="geometry" />
        </mxCell>
        <mxCell id="RTwjRU6lgNz25zl83SIT-111" value="loop" style="shape=umlFrame;whiteSpace=wrap;html=1;pointerEvents=0;width=34;height=21;fillColor=#dae8fc;strokeColor=#6c8ebf;" parent="1" vertex="1">
          <mxGeometry x="50" y="1063" width="493" height="29" as="geometry" />
        </mxCell>
        <mxCell id="RTwjRU6lgNz25zl83SIT-112" value="loop" style="shape=umlFrame;whiteSpace=wrap;html=1;pointerEvents=0;width=32;height=19;fillColor=#dae8fc;strokeColor=#6c8ebf;" parent="1" vertex="1">
          <mxGeometry x="49" y="1126" width="495" height="50" as="geometry" />
        </mxCell>
        <mxCell id="RTwjRU6lgNz25zl83SIT-113" value="" style="html=1;points=[[0,0,0,0,5],[0,1,0,0,-5],[1,0,0,0,5],[1,1,0,0,-5]];perimeter=orthogonalPerimeter;outlineConnect=0;targetShapes=umlLifeline;portConstraint=eastwest;newEdgeStyle={&quot;curved&quot;:0,&quot;rounded&quot;:0};fillColor=#dae8fc;strokeColor=#6c8ebf;" parent="1" vertex="1">
          <mxGeometry x="137" y="1136" width="10" height="13" as="geometry" />
        </mxCell>
        <mxCell id="RTwjRU6lgNz25zl83SIT-114" value="set_last_additive_tool" style="html=1;align=left;spacingLeft=2;endArrow=block;rounded=0;edgeStyle=orthogonalEdgeStyle;curved=0;rounded=0;entryX=1;entryY=0;entryDx=0;entryDy=5;entryPerimeter=0;" parent="1" target="RTwjRU6lgNz25zl83SIT-113" edge="1">
          <mxGeometry relative="1" as="geometry">
            <mxPoint x="140" y="1131" as="sourcePoint" />
            <Array as="points">
              <mxPoint x="165" y="1131" />
              <mxPoint x="165" y="1141" />
            </Array>
          </mxGeometry>
        </mxCell>
        <mxCell id="RTwjRU6lgNz25zl83SIT-115" value="" style="html=1;points=[[0,0,0,0,5],[0,1,0,0,-5],[1,0,0,0,5],[1,1,0,0,-5]];perimeter=orthogonalPerimeter;outlineConnect=0;targetShapes=umlLifeline;portConstraint=eastwest;newEdgeStyle={&quot;curved&quot;:0,&quot;rounded&quot;:0};fillColor=#dae8fc;strokeColor=#6c8ebf;" parent="1" vertex="1">
          <mxGeometry x="137" y="1159" width="10" height="13" as="geometry" />
        </mxCell>
        <mxCell id="RTwjRU6lgNz25zl83SIT-116" value="tool_change" style="html=1;align=left;spacingLeft=2;endArrow=block;rounded=0;edgeStyle=orthogonalEdgeStyle;curved=0;rounded=0;entryX=1;entryY=0;entryDx=0;entryDy=5;entryPerimeter=0;" parent="1" target="RTwjRU6lgNz25zl83SIT-115" edge="1">
          <mxGeometry relative="1" as="geometry">
            <mxPoint x="140" y="1154" as="sourcePoint" />
            <Array as="points">
              <mxPoint x="165" y="1154" />
              <mxPoint x="165" y="1164" />
            </Array>
          </mxGeometry>
        </mxCell>
        <mxCell id="RTwjRU6lgNz25zl83SIT-117" value="convert_relative:&lt;br&gt;converts extrusion mm from absolute to relative." style="shape=note2;boundedLbl=1;whiteSpace=wrap;html=1;size=9;verticalAlign=middle;align=left;" parent="1" vertex="1">
          <mxGeometry x="633" y="156" width="137" height="53" as="geometry" />
        </mxCell>
        <mxCell id="RTwjRU6lgNz25zl83SIT-120" value="" style="endArrow=open;endFill=1;endSize=12;html=1;rounded=0;entryX=0.007;entryY=0.47;entryDx=0;entryDy=0;entryPerimeter=0;" parent="1" source="RTwjRU6lgNz25zl83SIT-4" target="RTwjRU6lgNz25zl83SIT-117" edge="1">
          <mxGeometry width="160" relative="1" as="geometry">
            <mxPoint x="432" y="259" as="sourcePoint" />
            <mxPoint x="592" y="259" as="targetPoint" />
          </mxGeometry>
        </mxCell>
        <mxCell id="VmXkso3KA5exqOnQr0_7-1" value="" style="html=1;points=[[0,0,0,0,5],[0,1,0,0,-5],[1,0,0,0,5],[1,1,0,0,-5]];perimeter=orthogonalPerimeter;outlineConnect=0;targetShapes=umlLifeline;portConstraint=eastwest;newEdgeStyle={&quot;curved&quot;:0,&quot;rounded&quot;:0};fillColor=#d5e8d4;strokeColor=#82b366;" vertex="1" parent="1">
          <mxGeometry x="366" y="261" width="10" height="10" as="geometry" />
        </mxCell>
        <mxCell id="VmXkso3KA5exqOnQr0_7-2" value="get_layer_height (if height is None)" style="html=1;align=left;spacingLeft=2;endArrow=block;rounded=0;edgeStyle=orthogonalEdgeStyle;curved=0;rounded=0;" edge="1" parent="1" target="VmXkso3KA5exqOnQr0_7-1">
          <mxGeometry relative="1" as="geometry">
            <mxPoint x="371" y="257" as="sourcePoint" />
            <Array as="points">
              <mxPoint x="393" y="257" />
              <mxPoint x="393" y="265" />
            </Array>
          </mxGeometry>
        </mxCell>
        <mxCell id="VmXkso3KA5exqOnQr0_7-3" value="" style="html=1;points=[[0,0,0,0,5],[0,1,0,0,-5],[1,0,0,0,5],[1,1,0,0,-5]];perimeter=orthogonalPerimeter;outlineConnect=0;targetShapes=umlLifeline;portConstraint=eastwest;newEdgeStyle={&quot;curved&quot;:0,&quot;rounded&quot;:0};fillColor=#d5e8d4;strokeColor=#82b366;" vertex="1" parent="1">
          <mxGeometry x="366" y="344" width="10" height="10" as="geometry" />
        </mxCell>
        <mxCell id="VmXkso3KA5exqOnQr0_7-4" value="get_layer_height (if height is None)" style="html=1;align=left;spacingLeft=2;endArrow=block;rounded=0;edgeStyle=orthogonalEdgeStyle;curved=0;rounded=0;" edge="1" parent="1">
          <mxGeometry relative="1" as="geometry">
            <mxPoint x="371" y="341" as="sourcePoint" />
            <Array as="points">
              <mxPoint x="393" y="341" />
              <mxPoint x="393" y="349" />
            </Array>
            <mxPoint x="376" y="349" as="targetPoint" />
          </mxGeometry>
        </mxCell>
        <mxCell id="VmXkso3KA5exqOnQr0_7-7" value="cutting_segment.height == cutting_height or cutting_segment.planar is False or &lt;br&gt;len(cutting_segment.lines) == 1" style="shape=umlFrame;whiteSpace=wrap;html=1;pointerEvents=0;recursiveResize=0;container=1;collapsible=0;width=258;height=44;align=left;fillColor=#D4E1F5;strokeColor=#10739e;" vertex="1" parent="1">
          <mxGeometry x="80" y="650" width="413" height="209" as="geometry" />
        </mxCell>
        <mxCell id="VmXkso3KA5exqOnQr0_7-8" value="&lt;div&gt;[True]&lt;/div&gt;" style="text;html=1;" vertex="1" parent="VmXkso3KA5exqOnQr0_7-7">
          <mxGeometry width="37" height="31" relative="1" as="geometry">
            <mxPoint x="2" y="41" as="offset" />
          </mxGeometry>
        </mxCell>
        <mxCell id="VmXkso3KA5exqOnQr0_7-9" value="" style="line;strokeWidth=1;dashed=1;labelPosition=center;verticalLabelPosition=bottom;align=left;verticalAlign=top;spacingLeft=20;spacingTop=15;html=1;whiteSpace=wrap;" vertex="1" parent="VmXkso3KA5exqOnQr0_7-7">
          <mxGeometry y="76" width="321" height="10" as="geometry" />
        </mxCell>
        <mxCell id="VmXkso3KA5exqOnQr0_7-11" value="cutting_height = cutting_segment.height&lt;br&gt;&lt;div&gt;&lt;br&gt;&lt;/div&gt;&lt;div&gt;&lt;br&gt;&lt;/div&gt;&lt;div&gt;&lt;br&gt;&lt;/div&gt;&lt;div&gt;&lt;br&gt;&lt;/div&gt;&lt;div&gt;&lt;br&gt;&lt;/div&gt;&lt;div&gt;&lt;br&gt;&lt;/div&gt;&lt;div&gt;&amp;nbsp;cutting_group = [cutting_segment]&lt;br&gt;&lt;/div&gt;" style="text;html=1;" vertex="1" parent="VmXkso3KA5exqOnQr0_7-7">
          <mxGeometry x="69" y="81" width="251" height="116" as="geometry" />
        </mxCell>
        <mxCell id="VmXkso3KA5exqOnQr0_7-23" value="&lt;div&gt;cutting_group.append(cutting_segment)&lt;br&gt;cutting_height = cutting_segment.height&lt;br&gt;&lt;/div&gt;" style="text;html=1;" vertex="1" parent="VmXkso3KA5exqOnQr0_7-7">
          <mxGeometry x="69" y="40" width="236.5" height="37" as="geometry" />
        </mxCell>
        <mxCell id="VmXkso3KA5exqOnQr0_7-28" value="" style="html=1;points=[[0,0,0,0,5],[0,1,0,0,-5],[1,0,0,0,5],[1,1,0,0,-5]];perimeter=orthogonalPerimeter;outlineConnect=0;targetShapes=umlLifeline;portConstraint=eastwest;newEdgeStyle={&quot;curved&quot;:0,&quot;rounded&quot;:0};fillColor=#dae8fc;strokeColor=#6c8ebf;" vertex="1" parent="VmXkso3KA5exqOnQr0_7-7">
          <mxGeometry x="60" y="115" width="10" height="13" as="geometry" />
        </mxCell>
        <mxCell id="VmXkso3KA5exqOnQr0_7-29" value="add_lead_in_out" style="html=1;align=left;spacingLeft=2;endArrow=block;rounded=0;edgeStyle=orthogonalEdgeStyle;curved=0;rounded=0;" edge="1" parent="VmXkso3KA5exqOnQr0_7-7">
          <mxGeometry relative="1" as="geometry">
            <mxPoint x="65" y="108" as="sourcePoint" />
            <Array as="points">
              <mxPoint x="89" y="108" />
              <mxPoint x="89" y="122" />
              <mxPoint x="70" y="122" />
            </Array>
            <mxPoint x="69" y="122" as="targetPoint" />
          </mxGeometry>
        </mxCell>
        <mxCell id="VmXkso3KA5exqOnQr0_7-14" value="CamGcodeLayer:" style="shape=umlLifeline;perimeter=lifelinePerimeter;whiteSpace=wrap;html=1;container=0;dropTarget=0;collapsible=0;recursiveResize=0;outlineConnect=0;portConstraint=eastwest;newEdgeStyle={&quot;edgeStyle&quot;:&quot;elbowEdgeStyle&quot;,&quot;elbow&quot;:&quot;vertical&quot;,&quot;curved&quot;:0,&quot;rounded&quot;:0};size=13;fillColor=#e1d5e7;strokeColor=#9673a6;" vertex="1" parent="1">
          <mxGeometry x="320" y="765" width="99" height="82" as="geometry" />
        </mxCell>
        <mxCell id="VmXkso3KA5exqOnQr0_7-15" value="" style="html=1;points=[];perimeter=orthogonalPerimeter;outlineConnect=0;targetShapes=umlLifeline;portConstraint=eastwest;newEdgeStyle={&quot;edgeStyle&quot;:&quot;elbowEdgeStyle&quot;,&quot;elbow&quot;:&quot;vertical&quot;,&quot;curved&quot;:0,&quot;rounded&quot;:0};fillColor=#e1d5e7;strokeColor=#9673a6;" vertex="1" parent="VmXkso3KA5exqOnQr0_7-14">
          <mxGeometry x="44" y="17" width="10" height="59" as="geometry" />
        </mxCell>
        <mxCell id="VmXkso3KA5exqOnQr0_7-16" value="" style="html=1;points=[[0,0,0,0,5],[0,1,0,0,-5],[1,0,0,0,5],[1,1,0,0,-5]];perimeter=orthogonalPerimeter;outlineConnect=0;targetShapes=umlLifeline;portConstraint=eastwest;newEdgeStyle={&quot;curved&quot;:0,&quot;rounded&quot;:0};fillColor=#e1d5e7;strokeColor=#9673a6;" vertex="1" parent="1">
          <mxGeometry x="370" y="788" width="10" height="11" as="geometry" />
        </mxCell>
        <mxCell id="VmXkso3KA5exqOnQr0_7-17" value="set_cuttingheight" style="html=1;align=left;spacingLeft=2;endArrow=block;rounded=0;edgeStyle=orthogonalEdgeStyle;curved=0;rounded=0;" edge="1" parent="1" target="VmXkso3KA5exqOnQr0_7-16">
          <mxGeometry x="0.0313" relative="1" as="geometry">
            <mxPoint x="374" y="785" as="sourcePoint" />
            <Array as="points">
              <mxPoint x="403" y="785" />
              <mxPoint x="403" y="794" />
            </Array>
            <mxPoint x="378" y="791" as="targetPoint" />
            <mxPoint as="offset" />
          </mxGeometry>
        </mxCell>
        <mxCell id="VmXkso3KA5exqOnQr0_7-18" value="" style="html=1;points=[[0,0,0,0,5],[0,1,0,0,-5],[1,0,0,0,5],[1,1,0,0,-5]];perimeter=orthogonalPerimeter;outlineConnect=0;targetShapes=umlLifeline;portConstraint=eastwest;newEdgeStyle={&quot;curved&quot;:0,&quot;rounded&quot;:0};fillColor=#e1d5e7;strokeColor=#9673a6;" vertex="1" parent="1">
          <mxGeometry x="370" y="807" width="10" height="11" as="geometry" />
        </mxCell>
        <mxCell id="VmXkso3KA5exqOnQr0_7-19" value="set_planar" style="html=1;align=left;spacingLeft=2;endArrow=block;rounded=0;edgeStyle=orthogonalEdgeStyle;curved=0;rounded=0;entryX=1;entryY=0;entryDx=0;entryDy=5;entryPerimeter=0;" edge="1" parent="1" target="VmXkso3KA5exqOnQr0_7-18">
          <mxGeometry x="0.0313" relative="1" as="geometry">
            <mxPoint x="374" y="804" as="sourcePoint" />
            <Array as="points">
              <mxPoint x="404" y="804" />
              <mxPoint x="404" y="813" />
              <mxPoint x="387" y="813" />
              <mxPoint x="387" y="812" />
            </Array>
            <mxPoint x="379" y="810" as="targetPoint" />
            <mxPoint as="offset" />
          </mxGeometry>
        </mxCell>
        <mxCell id="VmXkso3KA5exqOnQr0_7-20" value="" style="html=1;points=[[0,0,0,0,5],[0,1,0,0,-5],[1,0,0,0,5],[1,1,0,0,-5]];perimeter=orthogonalPerimeter;outlineConnect=0;targetShapes=umlLifeline;portConstraint=eastwest;newEdgeStyle={&quot;curved&quot;:0,&quot;rounded&quot;:0};fillColor=#e1d5e7;strokeColor=#9673a6;" vertex="1" parent="1">
          <mxGeometry x="370" y="827" width="10" height="11" as="geometry" />
        </mxCell>
        <mxCell id="VmXkso3KA5exqOnQr0_7-21" value="parse_code" style="html=1;align=left;spacingLeft=2;endArrow=block;rounded=0;edgeStyle=orthogonalEdgeStyle;curved=0;rounded=0;entryX=1;entryY=0;entryDx=0;entryDy=5;entryPerimeter=0;" edge="1" parent="1" target="VmXkso3KA5exqOnQr0_7-20">
          <mxGeometry x="0.0313" relative="1" as="geometry">
            <mxPoint x="374" y="824" as="sourcePoint" />
            <Array as="points">
              <mxPoint x="404" y="824" />
              <mxPoint x="404" y="832" />
            </Array>
            <mxPoint x="379" y="830" as="targetPoint" />
            <mxPoint as="offset" />
          </mxGeometry>
        </mxCell>
        <mxCell id="VmXkso3KA5exqOnQr0_7-22" value="CamGcodeLayer" style="html=1;verticalAlign=bottom;endArrow=block;curved=0;rounded=0;exitX=1;exitY=0.416;exitDx=0;exitDy=0;exitPerimeter=0;" edge="1" parent="1">
          <mxGeometry x="-0.0047" y="-9" width="80" relative="1" as="geometry">
            <mxPoint x="146" y="790.3119999999999" as="sourcePoint" />
            <mxPoint x="364" y="790.3119999999999" as="targetPoint" />
            <mxPoint y="-1" as="offset" />
          </mxGeometry>
        </mxCell>
        <mxCell id="VmXkso3KA5exqOnQr0_7-24" value="[False]" style="text;html=1;" vertex="1" parent="1">
          <mxGeometry x="83" y="731" width="37" height="31" as="geometry" />
        </mxCell>
      </root>
    </mxGraphModel>
  </diagram>
</mxfile>
